# xmcd
#
# Track frame offsets:
#	182
#	4792
#	24030
#	43470
#	60775
#	78542
#	95750
#	111780
#	128517
#	136617
#	158297
#	180347
#	208380
#	228342
#	254072
#
# Disc length: 3441 seconds
#
# Revision: 0
# Processed by: cddbd v1.4PL0 Copyright (c) Steve Scherf et al.
# Submitted via: EasyCDDAExtractor 4.6.9.1
#
DISCID=b60d6f0f
DTITLE=Amyth - The World Is Ours
DYEAR=1999
DGENRE=RNB
TTITLE0=The World Is Ours (intro)
TTITLE1=Tell Me How Ya Like It
TTITLE2=1,2,3
TTITLE3=Come Home With Me
TTITLE4=Sexin Your Ex
TTITLE5=Dont Take Your Love Away
TTITLE6=Mamacita
TTITLE7=Who Shot Your heart
TTITLE8=Come Home With Amyth (interlude)
TTITLE9=My Body
TTITLE10=In The Rain
TTITLE11=Tender Love
TTITLE12=Never Gonna Let You Go
TTITLE13=You
TTITLE14=The World Is Ours (outro)
EXTD=
EXTT0=
EXTT1=
EXTT2=
EXTT3=
EXTT4=
EXTT5=
EXTT6=
EXTT7=
EXTT8=
EXTT9=
EXTT10=
EXTT11=
EXTT12=
EXTT13=
EXTT14=
PLAYORDER=
